<?xml version="1.0" encoding="UTF-8"?>
<svg viewBox="-200 -200 400 400" xmlns="http://www.w3.org/2000/svg">
    <!-- Cerchio esterno -->
    <circle cx="0" cy="0" r="150" fill="none" stroke="black" stroke-width="1"/>

    <!-- Raggi dal centro verso la circonferenza -->
    <g stroke="black" stroke-width="0.5">
        <!-- Raggio base -->
        <line x1="0" y1="0" x2="0" y2="-150"/>
        <!-- Altri 11 raggi ruotati -->
        <g transform="rotate(30)">
            <line x1="0" y1="0" x2="0" y2="-150"/>
        </g>
        <g transform="rotate(60)">
            <line x1="0" y1="0" x2="0" y2="-150"/>
        </g>
        <g transform="rotate(90)">
            <line x1="0" y1="0" x2="0" y2="-150"/>
        </g>
        <g transform="rotate(120)">
            <line x1="0" y1="0" x2="0" y2="-150"/>
        </g>
        <g transform="rotate(150)">
            <line x1="0" y1="0" x2="0" y2="-150"/>
        </g>
        <g transform="rotate(180)">
            <line x1="0" y1="0" x2="0" y2="-150"/>
        </g>
        <g transform="rotate(210)">
            <line x1="0" y1="0" x2="0" y2="-150"/>
        </g>
        <g transform="rotate(240)">
            <line x1="0" y1="0" x2="0" y2="-150"/>
        </g>
        <g transform="rotate(270)">
            <line x1="0" y1="0" x2="0" y2="-150"/>
        </g>
        <g transform="rotate(300)">
            <line x1="0" y1="0" x2="0" y2="-150"/>
        </g>
        <g transform="rotate(330)">
            <line x1="0" y1="0" x2="0" y2="-150"/>
        </g>
    </g>

    <!-- Punti di intersezione -->
    <g>
        <circle cx="0" cy="-150" r="3" fill="black"/>
        <g transform="rotate(30)">
            <circle cx="0" cy="-150" r="3" fill="black"/>
        </g>
        <g transform="rotate(60)">
            <circle cx="0" cy="-150" r="3" fill="black"/>
        </g>
        <g transform="rotate(90)">
            <circle cx="0" cy="-150" r="3" fill="black"/>
        </g>
        <g transform="rotate(120)">
            <circle cx="0" cy="-150" r="3" fill="black"/>
        </g>
        <g transform="rotate(150)">
            <circle cx="0" cy="-150" r="3" fill="black"/>
        </g>
        <g transform="rotate(180)">
            <circle cx="0" cy="-150" r="3" fill="black"/>
        </g>
        <g transform="rotate(210)">
            <circle cx="0" cy="-150" r="3" fill="black"/>
        </g>
        <g transform="rotate(240)">
            <circle cx="0" cy="-150" r="3" fill="black"/>
        </g>
        <g transform="rotate(270)">
            <circle cx="0" cy="-150" r="3" fill="black"/>
        </g>
        <g transform="rotate(300)">
            <circle cx="0" cy="-150" r="3" fill="black"/>
        </g>
        <g transform="rotate(330)">
            <circle cx="0" cy="-150" r="3" fill="black"/>
        </g>
    </g>

    <!-- Note musicali -->
    <g font-family="system-ui, -apple-system, Segoe UI, Roboto, Arial" font-size="14" text-anchor="middle">
        <!-- C -->
        <g transform="rotate(0) translate(0,-170) rotate(0)">
            <text>C</text>
        </g>
        <!-- G -->
        <g transform="rotate(30) translate(0,-170) rotate(-30)">
            <text>G</text>
        </g>
        <!-- D -->
        <g transform="rotate(60) translate(0,-170) rotate(-60)">
            <text>D</text>
        </g>
        <!-- A -->
        <g transform="rotate(90) translate(0,-170) rotate(-90)">
            <text>A</text>
        </g>
        <!-- E -->
        <g transform="rotate(120) translate(0,-170) rotate(-120)">
            <text>E</text>
        </g>
        <!-- B/C♭ -->
        <g transform="rotate(150) translate(0,-170) rotate(-150)">
            <text>B</text>
            <text dy="15">C♭</text>
        </g>
        <!-- F♯/G♭ -->
        <g transform="rotate(180) translate(0,-170) rotate(-180)">
            <text>F♯</text>
            <text dy="15">G♭</text>
        </g>
        <!-- D♭/C♯ -->
        <g transform="rotate(210) translate(0,-170) rotate(-210)">
            <text>D♭</text>
            <text dy="15">C♯</text>
        </g>
        <!-- A♭ -->
        <g transform="rotate(240) translate(0,-170) rotate(-240)">
            <text>A♭</text>
        </g>
        <!-- E♭ -->
        <g transform="rotate(270) translate(0,-170) rotate(-270)">
            <text>E♭</text>
        </g>
        <!-- B♭ -->
        <g transform="rotate(300) translate(0,-170) rotate(-300)">
            <text>B♭</text>
        </g>
        <!-- F -->
        <g transform="rotate(330) translate(0,-170) rotate(-330)">
            <text>F</text>
        </g>
    </g>
</svg>
